<svg width="15" height="15" viewBox="0 0 15 15" fill="none" xmlns="http://www.w3.org/2000/svg">
<path d="M7.34 0C3.29282 0 0 3.29265 0 7.34C0 11.3874 3.29282 14.68 7.34 14.68C11.3874 14.68 14.68 11.3874 14.68 7.34C14.68 3.29265 11.3872 0 7.34 0ZM7.34 13.6085C3.88361 13.6085 1.07153 10.7964 1.07153 7.34C1.07153 3.88361 3.88361 1.07153 7.34 1.07153C10.7964 1.07153 13.6085 3.88358 13.6085 7.33983C13.6085 10.7964 10.7964 13.6085 7.34 13.6085Z" fill="#E18E15"/>
<path d="M9.84019 7.33997H7.51855V4.12536C7.51855 3.82944 7.27871 3.5896 6.98278 3.5896C6.68686 3.5896 6.44702 3.82944 6.44702 4.12536V7.87573C6.44702 8.17165 6.68686 8.41149 6.98278 8.41149H9.84019C10.1361 8.41149 10.376 8.17165 10.376 7.87573C10.376 7.57981 10.1361 7.33997 9.84019 7.33997Z" fill="#E18E15"/>
</svg>
