<svg width="18" height="19" viewBox="0 0 18 19" fill="none" xmlns="http://www.w3.org/2000/svg">
<path d="M17.4756 19V18.9992H17.48V12.031C17.48 8.62205 16.8048 5.99609 13.1384 5.99609C11.3758 5.99609 10.193 7.04743 9.71012 8.04413H9.65914V6.31434H6.1828V18.9992H9.80262V12.7181C9.80262 11.0643 10.091 9.46517 11.9752 9.46517C13.8318 9.46517 13.8594 11.3525 13.8594 12.8242V19H17.4756Z" fill="#E18E15"/>
<path d="M0.288483 6.31519H3.91267V19H0.288483V6.31519Z" fill="#E18E15"/>
<path d="M2.09904 0C0.940269 0 0 1.02204 0 2.28158C0 3.54112 0.940269 4.58454 2.09904 4.58454C3.2578 4.58454 4.19807 3.54112 4.19807 2.28158C4.19734 1.02204 3.25708 0 2.09904 0V0Z" fill="#E18E15"/>
</svg>
